<?xml version="1.0" encoding="utf-8"?>
<!-- Generator: Adobe Illustrator 16.0.0, SVG Export Plug-In . SVG Version: 6.00 Build 0)  -->
<!DOCTYPE svg PUBLIC "-//W3C//DTD SVG 1.1//EN" "http://www.w3.org/Graphics/SVG/1.1/DTD/svg11.dtd">
<svg version="1.1" id="Layer_1" xmlns="http://www.w3.org/2000/svg" xmlns:xlink="http://www.w3.org/1999/xlink" x="0px" y="0px"
	 width="100px" height="50px" viewBox="0 0 100 50" enable-background="new 0 0 100 50" xml:space="preserve">
<path fill="#bb8822" d="M43.446,24.31l-0.839,0.148c-0.217,0.039-0.423-0.106-0.462-0.322l-0.148-0.841
	c-0.025-0.162-0.136-0.299-0.291-0.356c-0.154-0.057-0.328-0.026-0.454,0.08c-0.126,0.105-0.183,0.273-0.151,0.436l0.148,0.839
	c0.111,0.625,0.653,1.079,1.287,1.081c0.076,0,0.153-0.006,0.228-0.02l0.839-0.147c0.16-0.029,0.294-0.142,0.349-0.294
	c0.055-0.151,0.025-0.323-0.079-0.447C43.769,24.341,43.606,24.282,43.446,24.31L43.446,24.31z"/>
<path fill="#bb8822" d="M52.225,22.356l-0.147-0.838c-0.029-0.161-0.141-0.294-0.293-0.35s-0.322-0.025-0.447,0.079
	c-0.125,0.105-0.185,0.267-0.156,0.428l0.148,0.841c0.018,0.103-0.006,0.209-0.064,0.296c-0.063,0.087-0.154,0.146-0.258,0.165
	l-0.84,0.147c-0.231,0.042-0.392,0.254-0.373,0.487c0.021,0.234,0.216,0.414,0.451,0.416c0.027,0,0.054-0.002,0.08-0.009l0.84-0.147
	c0.343-0.06,0.646-0.253,0.845-0.537C52.207,23.05,52.285,22.699,52.225,22.356z"/>
<path fill="#bb8822" d="M46.992,5.121l0.839-0.148c0.104-0.02,0.211,0.006,0.298,0.066c0.086,0.06,0.146,0.153,0.164,0.257
	l0.148,0.84c0.039,0.218,0.227,0.374,0.446,0.376c0.027,0,0.054-0.002,0.08-0.007c0.119-0.021,0.224-0.088,0.294-0.188
	c0.069-0.098,0.096-0.221,0.075-0.34l-0.147-0.84c-0.127-0.71-0.804-1.185-1.516-1.06l-0.839,0.146
	c-0.16,0.03-0.293,0.141-0.348,0.293c-0.056,0.153-0.026,0.324,0.079,0.448C46.668,5.09,46.832,5.149,46.992,5.121z"/>
<path fill="#bb8822" d="M39.429,6.456l0.84-0.146c0.247-0.044,0.413-0.28,0.369-0.527c-0.044-0.247-0.281-0.412-0.527-0.369
	l-0.84,0.148c-0.71,0.127-1.185,0.804-1.06,1.517l0.147,0.839c0.039,0.218,0.228,0.375,0.448,0.375c0.027,0,0.053-0.001,0.079-0.007
	c0.119-0.02,0.226-0.088,0.294-0.188C39.248,8,39.276,7.876,39.254,7.758l-0.148-0.841c-0.018-0.103,0.006-0.211,0.066-0.296
	C39.233,6.536,39.325,6.477,39.429,6.456L39.429,6.456z"/>
<path fill="#bb8822" d="M46.284,18.416c0.12-0.361,0.13-0.75,0.029-1.116c0.205-0.084,0.4-0.189,0.582-0.315
	c0.167,0.146,0.277,0.346,0.313,0.567c0.234,0.984,0.881,1.297,1.225,1.327c0.013,0,0.027,0,0.041,0
	c0.237,0,0.438-0.179,0.462-0.413c0.012-0.12-0.022-0.238-0.098-0.33c-0.076-0.094-0.186-0.151-0.305-0.162
	c-0.013-0.003-0.303-0.064-0.44-0.637c-0.078-0.374-0.263-0.716-0.536-0.984c0.032-0.039,0.065-0.078,0.094-0.122
	c0.097-0.138,0.181-0.286,0.253-0.438c0.219,0.044,0.415,0.162,0.556,0.336c0.318,0.379,0.783,0.606,1.277,0.627
	c0.154,0,0.306-0.03,0.447-0.092c0.229-0.106,0.33-0.378,0.227-0.608c-0.048-0.11-0.138-0.194-0.25-0.236
	c-0.112-0.043-0.236-0.039-0.345,0.013c-0.01,0.005-0.294,0.096-0.698-0.331c-0.254-0.284-0.585-0.488-0.955-0.583
	c0.03-0.22,0.036-0.44,0.019-0.661c0.21-0.069,0.439-0.065,0.646,0.015c0.972,0.288,1.565-0.115,1.762-0.397
	c0.146-0.206,0.1-0.492-0.105-0.643c-0.097-0.07-0.217-0.098-0.336-0.079c-0.117,0.021-0.223,0.086-0.291,0.184
	c-0.009,0.01-0.209,0.23-0.77,0.063c-0.362-0.121-0.751-0.13-1.117-0.028c-0.083-0.204-0.189-0.4-0.316-0.58
	c0.146-0.169,0.349-0.279,0.568-0.314c0.985-0.235,1.298-0.881,1.328-1.225c0.023-0.252-0.161-0.477-0.413-0.503
	c-0.118-0.011-0.237,0.023-0.329,0.099c-0.092,0.077-0.15,0.187-0.162,0.304c0,0.014-0.065,0.305-0.637,0.441
	c-0.375,0.076-0.718,0.263-0.985,0.537c-0.173-0.137-0.361-0.252-0.56-0.347c0.043-0.221,0.162-0.416,0.336-0.558
	c0.735-0.695,0.683-1.41,0.537-1.725c-0.107-0.229-0.378-0.331-0.608-0.228c-0.109,0.049-0.195,0.14-0.237,0.251
	c-0.042,0.112-0.037,0.235,0.013,0.344c0.004,0.012,0.096,0.295-0.331,0.699c-0.285,0.253-0.488,0.585-0.584,0.954
	c-0.218-0.03-0.44-0.037-0.66-0.018c-0.068-0.213-0.062-0.439,0.018-0.646c0.289-0.97-0.114-1.563-0.396-1.762
	c-0.207-0.146-0.493-0.1-0.643,0.105c-0.069,0.097-0.098,0.217-0.079,0.335s0.085,0.224,0.184,0.293
	c0.009,0.009,0.229,0.207,0.063,0.769c-0.12,0.362-0.13,0.751-0.029,1.118c-0.205,0.084-0.399,0.189-0.581,0.314
	c-0.167-0.146-0.277-0.348-0.312-0.568c-0.234-0.984-0.881-1.297-1.225-1.327c-0.252-0.023-0.476,0.161-0.502,0.413
	c-0.014,0.119,0.022,0.237,0.098,0.329c0.076,0.093,0.187,0.151,0.305,0.163c0.013,0,0.303,0.063,0.439,0.636
	c0.078,0.373,0.265,0.714,0.537,0.98c-0.032,0.041-0.065,0.08-0.094,0.122c-0.096,0.14-0.181,0.287-0.252,0.438
	c-0.219-0.041-0.416-0.161-0.555-0.335c-0.696-0.732-1.411-0.682-1.726-0.537c-0.229,0.106-0.33,0.378-0.228,0.609
	c0.049,0.109,0.14,0.194,0.251,0.236s0.236,0.038,0.344-0.013c0.011-0.006,0.295-0.095,0.699,0.33
	c0.253,0.285,0.585,0.489,0.955,0.586c-0.03,0.218-0.037,0.438-0.019,0.658c-0.21,0.072-0.44,0.066-0.646-0.015
	c-0.971-0.288-1.565,0.115-1.762,0.397c-0.1,0.14-0.114,0.321-0.037,0.476c0.077,0.15,0.232,0.248,0.403,0.251
	c0.145,0,0.278-0.069,0.361-0.189c0.009-0.009,0.208-0.229,0.771-0.063c0.361,0.12,0.75,0.13,1.117,0.029
	c0.083,0.204,0.188,0.4,0.314,0.582c-0.147,0.167-0.348,0.276-0.568,0.312c-0.983,0.235-1.297,0.881-1.327,1.226
	c-0.022,0.251,0.161,0.476,0.412,0.503h0.043c0.232,0.003,0.428-0.173,0.449-0.405c0.002-0.014,0.064-0.305,0.637-0.44
	c0.374-0.076,0.716-0.264,0.984-0.535c0.041,0.031,0.079,0.064,0.122,0.094c0.139,0.097,0.286,0.182,0.438,0.253
	c-0.043,0.218-0.162,0.416-0.335,0.557c-0.735,0.694-0.682,1.408-0.537,1.725c0.077,0.162,0.242,0.269,0.423,0.27
	c0.064,0,0.127-0.016,0.186-0.041c0.109-0.049,0.194-0.14,0.236-0.251c0.042-0.112,0.037-0.236-0.013-0.346
	c-0.004-0.011-0.096-0.294,0.33-0.697c0.285-0.255,0.488-0.586,0.584-0.956c0.136,0.021,0.272,0.031,0.41,0.032
	c0.082,0,0.164-0.016,0.247-0.021c0.076,0.213,0.073,0.447-0.009,0.658c-0.289,0.97,0.114,1.563,0.397,1.761
	c0.079,0.056,0.173,0.085,0.269,0.085c0.147,0.001,0.287-0.068,0.373-0.19c0.07-0.097,0.1-0.216,0.08-0.335
	c-0.02-0.119-0.086-0.223-0.184-0.292C46.337,19.176,46.117,18.976,46.284,18.416z M43.111,14.881c0-0.008,0-0.017-0.004-0.024
	c-0.158-0.936,0.328-1.859,1.186-2.259c0.859-0.399,1.879-0.177,2.491,0.548c0.004,0.005,0.008,0.011,0.013,0.017
	c0.233,0.278,0.39,0.612,0.454,0.969c0,0.007,0,0.016,0.004,0.023c0.19,1.137-0.566,2.214-1.7,2.421l-0.022,0.003
	C44.397,16.771,43.318,16.014,43.111,14.881z"/>
<path fill="#bb8822" d="M61.778,6.636L52.116,4.83c-0.412-0.078-0.84-0.04-1.233,0.11l-0.146-0.827
	c-0.104-0.594-0.44-1.122-0.935-1.469c-0.495-0.346-1.105-0.48-1.699-0.376l-9.857,1.74c-0.594,0.104-1.121,0.441-1.468,0.935
	c-0.346,0.494-0.481,1.105-0.376,1.699l3.296,18.676c0.192,1.086,1.133,1.877,2.234,1.881c0.134-0.002,0.269-0.014,0.4-0.035
	l3.92-0.693c0.32,0.621,0.907,1.059,1.592,1.188l9.668,1.807c0.141,0.025,0.284,0.039,0.426,0.039
	c1.093-0.002,2.028-0.785,2.225-1.859l3.434-18.353c0.111-0.594-0.016-1.208-0.357-1.705C62.897,7.088,62.372,6.745,61.778,6.636
	L61.778,6.636z M53.784,21.377l-0.16-0.909c1.061-0.508,1.849-1.449,2.162-2.583c0.312-1.133,0.118-2.347-0.533-3.325
	c-0.436-0.659-1.064-1.17-1.799-1.463c0.45-0.074,0.91-0.068,1.357,0.014c2.121,0.453,3.544,2.453,3.277,4.605
	c-0.269,2.152-2.137,3.743-4.305,3.664V21.377z M52.561,13.778c0.792,0.147,1.491,0.612,1.935,1.286
	c0.479,0.724,0.641,1.611,0.443,2.457c-0.197,0.844-0.734,1.571-1.482,2.007l-1.016-5.766C52.48,13.768,52.521,13.771,52.561,13.778
	z M42.175,26.266c-0.742,0.133-1.45-0.364-1.581-1.104L37.298,6.485c-0.131-0.742,0.365-1.449,1.107-1.581l9.856-1.74
	c0.078-0.014,0.159-0.02,0.239-0.02c0.661,0,1.227,0.476,1.341,1.127l3.295,18.675c0.063,0.358-0.019,0.725-0.226,1.021
	s-0.523,0.499-0.881,0.562L42.175,26.266z M62.702,9.121l-3.432,18.36c-0.064,0.355-0.268,0.67-0.566,0.875
	s-0.667,0.283-1.021,0.215l-9.669-1.805c-0.305-0.061-0.579-0.227-0.777-0.467l1.372-0.242c0.079,0.035,0.16,0.057,0.243,0.074
	l0.828,0.156c0.028,0.004,0.056,0.008,0.084,0.008c0.218,0,0.407-0.156,0.446-0.372c0.008-0.049,0.008-0.1,0-0.148l1.984-0.35
	c1.235-0.221,2.062-1.398,1.843-2.636l-0.087-0.494c0.028,0,0.06,0.005,0.092,0.005c2.59-0.052,4.729-2.041,4.972-4.62
	c0.242-2.58-1.492-4.931-4.028-5.463c-0.929-0.17-1.888-0.068-2.76,0.294l-0.637-3.614c0.074-0.065,0.124-0.153,0.144-0.252
	l0.154-0.827c0.04-0.21,0.242-0.348,0.451-0.309l0.828,0.155c0.247,0.043,0.482-0.119,0.528-0.365s-0.115-0.482-0.36-0.529
	l-0.828-0.155c-0.466-0.085-0.941,0.091-1.238,0.46L51.054,5.87c0.273-0.151,0.588-0.203,0.895-0.146l9.664,1.806
	c0.355,0.065,0.67,0.271,0.875,0.57c0.205,0.298,0.283,0.667,0.217,1.021H62.702z"/>
<path fill="#bb8822" d="M58.431,25.285c-0.246-0.047-0.484,0.115-0.53,0.363l-0.155,0.829c-0.039,0.209-0.24,0.346-0.451,0.309
	l-0.828-0.156c-0.246-0.043-0.482,0.119-0.527,0.365c-0.046,0.246,0.115,0.482,0.36,0.531l0.827,0.152
	c0.08,0.016,0.161,0.023,0.241,0.025c0.624-0.002,1.159-0.447,1.274-1.061l0.155-0.829c0.022-0.117-0.005-0.24-0.073-0.342
	C58.655,25.375,58.55,25.304,58.431,25.285z"/>
<path fill="#bb8822" d="M60.776,8.161l-0.828-0.155c-0.246-0.044-0.482,0.119-0.529,0.365C59.374,8.617,59.536,8.853,59.78,8.9
	l0.828,0.155c0.211,0.039,0.35,0.241,0.309,0.451l-0.154,0.827c-0.021,0.12,0.004,0.242,0.072,0.342
	c0.068,0.101,0.173,0.167,0.293,0.189c0.027,0.006,0.055,0.009,0.082,0.009c0.221,0,0.408-0.156,0.449-0.372l0.154-0.827
	C61.942,8.969,61.479,8.293,60.776,8.161z"/>
<path fill="#bb8822" d="M58.229,10.324c0.028,0.005,0.057,0.008,0.084,0.008c0.219,0,0.406-0.157,0.447-0.372l0.077-0.414
	c0.044-0.245-0.118-0.48-0.364-0.528c-0.246-0.044-0.482,0.116-0.529,0.362l-0.078,0.413c-0.022,0.119,0.004,0.242,0.072,0.342
	S58.11,10.302,58.229,10.324z"/>
<path fill="#bb8822" d="M57.778,10.633c0.021-0.119-0.004-0.24-0.072-0.341c-0.068-0.1-0.174-0.168-0.291-0.19l-0.414-0.077
	c-0.16-0.03-0.325,0.026-0.432,0.149c-0.105,0.124-0.139,0.297-0.084,0.45c0.055,0.154,0.188,0.266,0.349,0.294l0.413,0.078
	c0.027,0.006,0.056,0.008,0.084,0.008C57.55,11.004,57.737,10.848,57.778,10.633z"/>
<path fill="#bb8822" d="M58.089,11.084c-0.119-0.022-0.242,0.004-0.341,0.071c-0.101,0.068-0.169,0.174-0.19,0.293l-0.078,0.413
	c-0.022,0.118,0.004,0.241,0.072,0.341s0.173,0.167,0.291,0.188c0.027,0.006,0.057,0.009,0.086,0.009
	c0.219,0,0.405-0.155,0.445-0.371l0.078-0.413c0.022-0.119-0.004-0.242-0.072-0.341C58.312,11.175,58.206,11.106,58.089,11.084z"/>
<path fill="#bb8822" d="M59.483,10.491l-0.414-0.078c-0.246-0.045-0.481,0.117-0.527,0.363c-0.045,0.245,0.115,0.483,0.361,0.53
	l0.413,0.077c0.027,0.005,0.056,0.007,0.085,0.007c0.234,0,0.43-0.179,0.451-0.412C59.875,10.745,59.714,10.533,59.483,10.491z"/>
<path fill="#bb8822" d="M42.167,7.698c0.026,0,0.052-0.003,0.079-0.007c0.119-0.021,0.225-0.088,0.293-0.188
	c0.069-0.099,0.097-0.222,0.076-0.34l-0.074-0.419c-0.049-0.243-0.282-0.402-0.525-0.357c-0.243,0.042-0.407,0.271-0.371,0.514
	l0.073,0.42C41.757,7.539,41.945,7.698,42.167,7.698z"/>
<path fill="#bb8822" d="M41.055,8.76c0.026,0,0.053-0.003,0.079-0.009l0.419-0.072c0.16-0.028,0.293-0.14,0.349-0.294
	c0.055-0.15,0.025-0.321-0.079-0.447c-0.104-0.124-0.267-0.185-0.427-0.155l-0.419,0.074c-0.233,0.041-0.396,0.252-0.375,0.487
	C40.622,8.58,40.818,8.76,41.055,8.76z"/>
<path fill="#bb8822" d="M42.384,8.475c-0.119,0.02-0.225,0.088-0.293,0.187C42.021,8.76,41.994,8.883,42.015,9l0.075,0.421
	c0.039,0.216,0.226,0.376,0.447,0.376c0.027,0,0.053-0.003,0.08-0.007c0.247-0.044,0.412-0.28,0.369-0.527l-0.074-0.419
	c-0.021-0.121-0.089-0.226-0.187-0.294C42.625,8.481,42.502,8.453,42.384,8.475z"/>
<path fill="#bb8822" d="M43.154,8.388c0.026,0,0.054-0.001,0.079-0.006l0.42-0.075c0.16-0.027,0.293-0.14,0.349-0.29
	c0.055-0.154,0.026-0.325-0.079-0.449c-0.104-0.125-0.267-0.184-0.427-0.155l-0.419,0.072c-0.233,0.043-0.395,0.254-0.375,0.488
	C42.722,8.209,42.918,8.388,43.154,8.388z"/>
<path fill="#bb8822" d="M48.239,19.567c-0.119,0.021-0.224,0.09-0.293,0.187c-0.069,0.1-0.097,0.222-0.076,0.341l0.075,0.42
	c0.038,0.217,0.227,0.376,0.446,0.376c0.027,0,0.054-0.003,0.08-0.007c0.247-0.045,0.412-0.279,0.369-0.527l-0.074-0.421
	C48.722,19.688,48.486,19.523,48.239,19.567z"/>
<path fill="#bb8822" d="M47.622,20.975l-0.421,0.075c-0.231,0.041-0.392,0.253-0.371,0.487c0.02,0.233,0.215,0.414,0.451,0.414
	c0.026,0.001,0.053,0,0.079-0.006l0.419-0.076c0.242-0.047,0.4-0.279,0.357-0.522C48.094,21.104,47.865,20.94,47.622,20.975z"/>
<path fill="#bb8822" d="M48.609,21.667c-0.247,0.043-0.412,0.278-0.368,0.526l0.074,0.42c0.039,0.218,0.227,0.376,0.447,0.377
	c0.027,0,0.054-0.003,0.079-0.009c0.12-0.019,0.226-0.087,0.295-0.187c0.069-0.099,0.097-0.223,0.075-0.341l-0.074-0.42
	C49.092,21.788,48.856,21.624,48.609,21.667z"/>
<path fill="#bb8822" d="M50.248,20.974c-0.021-0.119-0.088-0.226-0.187-0.295c-0.099-0.068-0.221-0.095-0.34-0.074l-0.42,0.074
	c-0.232,0.041-0.395,0.251-0.375,0.486c0.02,0.236,0.217,0.416,0.454,0.416c0.026,0,0.053-0.003,0.079-0.008l0.419-0.073
	c0.119-0.021,0.225-0.089,0.294-0.188S50.27,21.092,50.248,20.974z"/>
<path fill="#bb8822" d="M55.678,23.98c0.028,0.006,0.056,0.009,0.084,0.009c0.219,0,0.406-0.156,0.446-0.37l0.078-0.416
	c0.043-0.245-0.119-0.479-0.365-0.527c-0.245-0.045-0.482,0.116-0.529,0.362l-0.078,0.413c-0.022,0.119,0.004,0.242,0.072,0.341
	C55.454,23.891,55.56,23.959,55.678,23.98z"/>
<path fill="#bb8822" d="M55.223,24.291c0.046-0.246-0.116-0.483-0.364-0.531l-0.413-0.075c-0.243-0.039-0.472,0.123-0.517,0.365
	c-0.045,0.241,0.109,0.475,0.35,0.526l0.414,0.078c0.027,0.006,0.055,0.009,0.084,0.009C54.995,24.663,55.183,24.505,55.223,24.291z
	"/>
<path fill="#bb8822" d="M55.534,24.742c-0.119-0.021-0.24,0.005-0.341,0.073c-0.1,0.068-0.167,0.172-0.189,0.292l-0.077,0.412
	c-0.022,0.119,0.004,0.242,0.071,0.342s0.173,0.168,0.292,0.19c0.027,0.006,0.057,0.008,0.084,0.008
	c0.219,0,0.407-0.157,0.446-0.372l0.077-0.414c0.023-0.118-0.004-0.24-0.072-0.34C55.758,24.833,55.653,24.764,55.534,24.742z"/>
<path fill="#bb8822" d="M55.985,24.433c-0.046,0.248,0.119,0.483,0.365,0.531l0.414,0.077c0.027,0.004,0.055,0.007,0.083,0.007
	c0.235,0,0.431-0.18,0.452-0.414c0.021-0.231-0.139-0.444-0.369-0.487l-0.413-0.077c-0.118-0.022-0.241,0.003-0.341,0.072
	C56.077,24.209,56.009,24.315,55.985,24.433z"/>
<g>
	<path fill="#bb8822" d="M14.323,37.752c-0.117,0.133-0.275,0.25-0.473,0.352c-0.198,0.104-0.404,0.199-0.616,0.287
		c-0.213,0.088-0.407,0.168-0.583,0.241c-0.176,0.073-0.293,0.14-0.352,0.198c-0.029-0.044-0.081-0.066-0.154-0.066
		c-0.044,0-0.14,0.045-0.286,0.133s-0.235,0.131-0.264,0.131c-0.088,0-0.162-0.065-0.22-0.197c-0.03-0.015-0.055,0.015-0.077,0.088
		c-0.022,0.074-0.041,0.109-0.055,0.109c-0.088-0.043-0.184-0.065-0.286-0.065c-0.044,0-0.106,0.011-0.187,0.033
		c-0.081,0.022-0.172,0.044-0.275,0.065c-0.103,0.022-0.195,0.041-0.275,0.056c-0.081,0.015-0.143,0.022-0.187,0.022
		c-0.088,0-0.162-0.022-0.22-0.066c-0.059-0.045-0.125-0.066-0.198-0.066c-0.059,0-0.132,0.066-0.22,0.198
		c-0.382-0.015-0.667-0.036-0.858-0.065c-0.191-0.029-0.338-0.177-0.44-0.44H8.075c-0.074,0-0.143,0.036-0.209,0.11
		c-0.066,0.073-0.129,0.146-0.187,0.219c-0.03,0-0.092,0.041-0.187,0.121c-0.096,0.082-0.202,0.166-0.319,0.254
		c-0.118,0.088-0.231,0.172-0.341,0.253s-0.187,0.12-0.231,0.12c-0.044,0.074-0.165,0.174-0.363,0.298
		c-0.198,0.124-0.411,0.271-0.638,0.44c-0.228,0.168-0.444,0.34-0.649,0.517c-0.206,0.176-0.338,0.345-0.396,0.506
		c-0.162,0.088-0.411,0.33-0.748,0.726c-0.22,0.294-0.385,0.521-0.495,0.682c-0.11,0.162-0.184,0.305-0.22,0.43
		s-0.055,0.253-0.055,0.385c0,0.133,0,0.309,0,0.528c0,0.118,0.003,0.238,0.011,0.362c0.007,0.125,0.019,0.246,0.033,0.363
		l1.496,1.408v0.088c0,0.088,0.022,0.206,0.066,0.352c0.073,0,0.19-0.039,0.352-0.12c0.161-0.081,0.271-0.121,0.33-0.121
		c0.044,0,0.117,0.029,0.22,0.088h0.044c0.161,0,0.308,0.088,0.44,0.265c0.117-0.029,0.22-0.045,0.308-0.045
		c0.22,0,0.462,0.045,0.726,0.133c0.059-0.045,0.117-0.066,0.176-0.066s0.143,0.059,0.253,0.176c0.11,0.117,0.179,0.176,0.209,0.176
		c0.044,0,0.124-0.066,0.242-0.197c0.088-0.015,0.25-0.033,0.484-0.055c0.235-0.023,0.484-0.052,0.748-0.089
		c0.264-0.036,0.517-0.077,0.759-0.121c0.242-0.044,0.414-0.103,0.517-0.176l0.396-0.286l1.518-1.605
		c0.044-0.146,0.14-0.315,0.286-0.506c0.073,0.073,0.146,0.109,0.22,0.109c0.073,0,0.146-0.036,0.22-0.109
		c0.015,0.029,0.07,0.055,0.165,0.076c0.095,0.022,0.19,0.045,0.286,0.066c0.095,0.021,0.187,0.055,0.275,0.1
		c0.088,0.043,0.146,0.095,0.176,0.153c-0.03,0.161-0.07,0.294-0.121,0.396c-0.052,0.104-0.132,0.217-0.242,0.342
		s-0.253,0.268-0.429,0.429c-0.176,0.161-0.404,0.374-0.682,0.638c-0.059,0.016-0.14,0.063-0.242,0.143
		c-0.103,0.082-0.216,0.17-0.341,0.265c-0.125,0.096-0.246,0.18-0.363,0.253c-0.117,0.074-0.22,0.109-0.308,0.109h-0.088
		c-0.059-0.028-0.168-0.058-0.33-0.088c-0.044,0.294-0.154,0.492-0.33,0.595h-0.044c-0.044,0-0.114,0.022-0.209,0.065
		c-0.096,0.045-0.195,0.096-0.297,0.154s-0.202,0.11-0.297,0.154c-0.096,0.044-0.165,0.066-0.209,0.066
		c-0.015,0-0.026-0.004-0.033-0.012c-0.007-0.007-0.019-0.011-0.033-0.011c-0.132,0.161-0.293,0.241-0.484,0.241
		c-0.03,0-0.055-0.003-0.077-0.01c-0.022-0.008-0.048-0.012-0.077-0.012h-0.22c-0.147,0-0.279,0.004-0.396,0.012
		c-0.118,0.007-0.246,0.018-0.385,0.033c-0.14,0.014-0.308,0.025-0.506,0.032c-0.198,0.007-0.451,0.019-0.759,0.033H6.337
		c-0.308,0-0.59-0.037-0.847-0.11c-0.256-0.073-0.561-0.168-0.913-0.285c-0.191-0.016-0.411-0.045-0.66-0.089
		c-0.25-0.044-0.418-0.161-0.506-0.352c-0.015-0.015-0.114-0.036-0.297-0.066c-0.184-0.028-0.385-0.088-0.605-0.176
		c-0.22-0.088-0.421-0.209-0.605-0.362c-0.184-0.154-0.275-0.363-0.275-0.628c0-0.117,0.007-0.205,0.022-0.264
		c-0.044,0.015-0.11,0.022-0.198,0.022c-0.323,0-0.514-0.191-0.572-0.572c0.044-0.045,0.066-0.146,0.066-0.309
		c0-0.059-0.007-0.139-0.022-0.242c-0.015-0.102-0.022-0.189-0.022-0.264c0-0.19,0.081-0.322,0.242-0.396
		c-0.044-0.088-0.066-0.189-0.066-0.308c0-0.132,0.073-0.337,0.22-0.616c0.19-0.352,0.33-0.572,0.418-0.66
		c0.088-0.088,0.132-0.146,0.132-0.176c-0.015-0.014-0.022-0.043-0.022-0.088c0-0.146,0.051-0.285,0.154-0.418
		c0.103-0.132,0.231-0.264,0.385-0.396c0.154-0.131,0.33-0.271,0.528-0.418c0.198-0.146,0.392-0.307,0.583-0.483
		c0.088-0.234,0.286-0.425,0.594-0.571l0.726-0.353c0.132-0.132,0.308-0.297,0.528-0.495c0.22-0.197,0.491-0.422,0.814-0.671
		c0.044,0.059,0.095,0.088,0.154,0.088c0.029,0,0.059-0.007,0.088-0.022c-0.059-0.043-0.088-0.102-0.088-0.176
		c0-0.044,0.015-0.124,0.044-0.242L5.611,37.62l-0.198,0.242c-0.088-0.161-0.242-0.242-0.462-0.242H4.885
		c-0.161,0-0.275-0.003-0.341-0.011s-0.118-0.019-0.154-0.033c-0.037-0.015-0.066-0.025-0.088-0.033
		c-0.022-0.008-0.077-0.011-0.165-0.011c-0.132,0-0.294,0.011-0.484,0.032c-0.19,0.022-0.411,0.063-0.66,0.121
		c-0.044,0.074-0.143,0.177-0.297,0.309c-0.154,0.132-0.315,0.257-0.484,0.374c-0.169,0.118-0.385,0.271-0.649,0.462H1.519
		c-0.044,0-0.106,0.019-0.187,0.055c-0.081,0.037-0.169,0.081-0.264,0.133c-0.095,0.051-0.184,0.096-0.264,0.131
		c-0.081,0.037-0.129,0.056-0.143,0.056c-0.074,0-0.14-0.029-0.198-0.088L0.529,38.5l1.54-1.518
		c0.542-0.514,1.115-0.771,1.716-0.771h0.154c0.044-0.117,0.132-0.176,0.264-0.176c0.058,0,0.128,0.007,0.209,0.022
		c0.08,0.014,0.143,0.021,0.187,0.021c0.058,0,0.095-0.008,0.11-0.021c0.161,0,0.29,0.018,0.385,0.055s0.172,0.073,0.231,0.109
		c0.058,0.037,0.106,0.074,0.143,0.11s0.077,0.056,0.121,0.056c0.059,0,0.117-0.016,0.176-0.045c0.058-0.029,0.11-0.043,0.154-0.043
		c0.059,0,0.11,0.021,0.154,0.065c0.044-0.015,0.132-0.022,0.264-0.022s0.374,0.088,0.726,0.264
		c0.161,0.089,0.297,0.147,0.407,0.177c0.11,0.029,0.194,0.055,0.253,0.077c0.058,0.021,0.099,0.051,0.121,0.088
		c0.022,0.037,0.033,0.099,0.033,0.188v0.131l0.286,0.066c-0.088,0.133-0.147,0.279-0.176,0.439c0.059,0,0.125-0.021,0.198-0.065
		c0.073-0.044,0.143-0.095,0.209-0.153S8.519,37.443,8.57,37.4c0.051-0.045,0.084-0.066,0.099-0.066
		c0.117,0,0.256,0.066,0.418,0.198c0.234,0.176,0.359,0.264,0.374,0.264c0.059,0,0.125-0.036,0.198-0.11
		c0.176,0.045,0.278,0.066,0.308,0.066s0.11-0.011,0.242-0.033c0.132-0.021,0.271-0.051,0.418-0.088
		c0.146-0.036,0.286-0.066,0.418-0.088s0.212-0.033,0.242-0.033c0.117,0,0.22,0.016,0.308,0.045c0.029-0.029,0.11-0.056,0.242-0.078
		c0.132-0.021,0.308-0.062,0.528-0.121c0.22-0.058,0.484-0.139,0.792-0.241c0.308-0.103,0.66-0.257,1.056-0.462
		c0.176,0.044,0.359,0.096,0.55,0.154c0.19,0.059,0.315,0.146,0.374,0.264C15.122,37.261,14.851,37.488,14.323,37.752z
		 M1.585,43.648c-0.191,0-0.308,0.22-0.352,0.66l0.352,0.109c-0.015-0.014-0.022-0.059-0.022-0.132c0-0.029,0.047-0.103,0.143-0.22
		c0.095-0.117,0.143-0.221,0.143-0.309v-0.021C1.746,43.678,1.658,43.648,1.585,43.648z M2.091,45.1
		c0.015,0.029,0.125,0.053,0.33,0.066C2.348,45.152,2.237,45.129,2.091,45.1z M2.795,45.914h0.022
		c0.015,0.015-0.033,0.004-0.143-0.033c-0.11-0.036-0.202-0.055-0.275-0.055c-0.074,0-0.125,0.037-0.154,0.109
		c0.058,0.059,0.139,0.088,0.242,0.088c0.059,0,0.162-0.014,0.308-0.043V45.914z M2.509,43.648v0.22h0.066
		c0.014-0.015,0.022-0.059,0.022-0.132C2.582,43.678,2.553,43.648,2.509,43.648z M2.773,43.45H2.707l0.066,0.065V43.45z
		 M3.125,46.553c-0.118,0-0.176,0.021-0.176,0.065c0.029,0,0.11,0.022,0.242,0.065h0.066c0.044,0,0.081-0.021,0.11-0.065
		C3.293,46.574,3.213,46.553,3.125,46.553z M3.147,36.895c-0.03,0-0.059,0.008-0.088,0.021c-0.03,0.015-0.044,0.037-0.044,0.066
		v0.021c0.029,0.029,0.088,0.044,0.176,0.044c0.015,0,0.022-0.007,0.022-0.022c-0.015-0.014-0.022-0.028-0.022-0.043
		C3.191,36.924,3.176,36.895,3.147,36.895z M3.191,41.91c-0.029-0.044-0.059-0.066-0.088-0.066c-0.015,0-0.022,0.008-0.022,0.022
		v0.153h0.11V41.91z M5.831,36.477c-0.015,0.029-0.022,0.065-0.022,0.109c0,0.059,0.036,0.146,0.11,0.264
		c0.103-0.131,0.154-0.227,0.154-0.285c0-0.015-0.007-0.022-0.022-0.022V36.52L5.831,36.477z M6.491,36.74
		c-0.03,0-0.063,0.015-0.099,0.044c-0.037,0.029-0.055,0.059-0.055,0.088c0,0.03,0.015,0.052,0.044,0.065
		c0.029,0.016,0.059,0.022,0.088,0.022c0.059,0,0.088-0.052,0.088-0.153C6.527,36.762,6.505,36.74,6.491,36.74z M6.777,38.786H6.755
		c-0.059,0-0.088,0.059-0.088,0.176c0.029,0.03,0.066,0.06,0.11,0.089V38.786z M6.975,39.303c-0.015,0.008-0.037,0.025-0.066,0.055
		h0.066c0.029-0.029,0.044-0.058,0.044-0.088C7.004,39.285,6.989,39.296,6.975,39.303z M7.261,37.225l-0.242-0.066l0.022,0.264h0.22
		V37.225z M7.591,47.477c-0.059-0.059-0.103-0.096-0.132-0.11c-0.074,0.015-0.11,0.052-0.11,0.11c0,0.029,0.014,0.059,0.044,0.088
		h0.198V47.477z M8.383,37.906H8.295l0.11,0.021L8.383,37.906z M9.241,38.061H9.087l0.154,0.065V38.061z M9.307,38.764
		c0-0.043-0.03-0.065-0.088-0.065v0.153h0.088V38.764z M9.945,47.564c0.103-0.133,0.301-0.33,0.594-0.594
		C10.201,47.059,10.003,47.256,9.945,47.564z M11.595,46.332h-0.066l0.066,0.021V46.332z M12.079,46.266v0.022
		c0.014,0.03,0.036,0.059,0.066,0.088c0.029,0.03,0.059,0.065,0.088,0.11c0.146-0.234,0.22-0.396,0.22-0.484
		C12.204,46.135,12.079,46.223,12.079,46.266z M12.959,45.43c-0.059,0-0.11,0.008-0.154,0.022c-0.03,0-0.096-0.048-0.198-0.144
		c-0.103-0.095-0.184-0.143-0.242-0.143c0.015,0.029,0.073,0.104,0.176,0.221c0.103,0.117,0.154,0.197,0.154,0.241
		c-0.029,0.06-0.051,0.096-0.066,0.11h0.198c0.102,0,0.154-0.103,0.154-0.309H12.959z M12.805,38.126l-0.022,0.198h0.088
		C12.871,38.266,12.849,38.199,12.805,38.126z M14.455,37.225l-0.044,0.131c0.058-0.029,0.11-0.051,0.154-0.065
		C14.536,37.246,14.499,37.225,14.455,37.225z M14.785,37.004h-0.066l0.066,0.044V37.004z"/>
	<path fill="#bb8822" d="M23.772,47.807c-0.14,0.088-0.293,0.184-0.462,0.285c-0.169,0.104-0.327,0.201-0.473,0.297s-0.234,0.166-0.264,0.209
		c-0.03-0.014-0.096-0.033-0.198-0.055s-0.235-0.063-0.396-0.121c-0.132-0.015-0.224-0.059-0.275-0.132
		c-0.052-0.073-0.096-0.153-0.132-0.242c-0.037-0.088-0.085-0.169-0.143-0.241c-0.059-0.074-0.154-0.11-0.286-0.11
		c-0.059,0-0.15,0.025-0.275,0.077c-0.125,0.051-0.264,0.105-0.418,0.164c-0.154,0.06-0.312,0.114-0.473,0.166
		c-0.162,0.051-0.301,0.084-0.418,0.099c-0.293,0.249-0.917,0.396-1.87,0.44c-0.146-0.045-0.279-0.081-0.396-0.11
		c-0.117-0.03-0.22-0.044-0.308-0.044c-0.103,0-0.184,0.021-0.242,0.066c-0.293-0.03-0.631-0.177-1.012-0.44h-0.066
		c-0.367,0-0.719-0.19-1.056-0.572c0.029-0.073,0.106-0.099,0.231-0.077c0.124,0.022,0.187-0.011,0.187-0.099l-0.286-0.308
		l-0.198,0.131c-0.132-0.102-0.198-0.234-0.198-0.396c0-0.058,0.025-0.183,0.077-0.374c0.051-0.19,0.077-0.308,0.077-0.352
		c0.044-0.074,0.146-0.18,0.308-0.319c0.161-0.14,0.33-0.286,0.506-0.44c0.176-0.153,0.337-0.304,0.484-0.451
		c0.146-0.146,0.235-0.264,0.264-0.352c0.234-0.176,0.561-0.406,0.979-0.693c0.418-0.285,0.935-0.627,1.551-1.022
		c0.014,0,0.073-0.019,0.176-0.056c0.103-0.035,0.22-0.076,0.352-0.12s0.256-0.081,0.374-0.11c0.117-0.029,0.19-0.044,0.22-0.044
		c-0.029,0,0.066,0.022,0.286,0.065c0.059,0,0.095-0.021,0.11-0.065s0.033-0.088,0.055-0.132s0.063-0.088,0.121-0.132
		s0.154-0.066,0.286-0.066c0.22,0,0.407,0.04,0.561,0.121c0.154,0.081,0.311,0.231,0.473,0.451c0.161,0.22,0.341,0.521,0.539,0.901
		c0.198,0.383,0.451,0.873,0.759,1.475c-0.03,0.029-0.044,0.08-0.044,0.154c0,0.043,0.055,0.143,0.165,0.297
		c0.11,0.154,0.165,0.289,0.165,0.406v0.045c0.088,0.059,0.176,0.168,0.264,0.33c0.088,0.161,0.168,0.334,0.242,0.517
		c0.073,0.184,0.139,0.353,0.198,0.506c0.059,0.154,0.103,0.245,0.132,0.274C23.996,47.652,23.911,47.719,23.772,47.807z
		 M15.137,47.256v0.11c0.044,0,0.121,0.032,0.231,0.099s0.187,0.1,0.231,0.1h0.022C15.563,47.389,15.401,47.285,15.137,47.256z
		 M15.841,46.838c-0.059,0-0.088,0.029-0.088,0.088h0.198L15.841,46.838z M15.973,46.441h-0.066l0.066,0.066V46.441z M20.934,45.43
		c-0.052-0.132-0.128-0.197-0.231-0.197c-0.03,0-0.118,0.059-0.264,0.176c-0.176-0.161-0.301-0.389-0.374-0.682
		c-0.132-0.265-0.242-0.466-0.33-0.605c-0.088-0.139-0.165-0.242-0.231-0.309c-0.066-0.065-0.125-0.105-0.176-0.121
		c-0.052-0.014-0.121-0.021-0.209-0.021h-0.11c-0.176,0.029-0.297,0.059-0.363,0.088s-0.114,0.096-0.143,0.198l-2.134,1.958v0.088
		c0.059,0.029,0.183,0.205,0.374,0.528c0.132,0.206,0.282,0.349,0.451,0.429c0.168,0.081,0.37,0.136,0.605,0.165
		c0.234,0.03,0.506,0.044,0.814,0.044c0.308,0,0.652,0.008,1.034,0.021c0.044-0.072,0.198-0.131,0.462-0.176
		c0.279-0.072,0.473-0.164,0.583-0.274c0.11-0.11,0.165-0.216,0.165-0.319c0-0.014-0.019-0.069-0.055-0.165
		c-0.037-0.095-0.074-0.198-0.11-0.308c-0.037-0.11-0.092-0.254-0.165-0.43c0.088-0.043,0.124-0.065,0.11-0.065
		c0.176,0.132,0.293,0.198,0.352,0.198h0.022C21.011,45.636,20.985,45.563,20.934,45.43z M19.801,47.366
		c-0.03-0.029-0.074-0.044-0.132-0.044l0.132,0.109V47.366z M20.395,44.418c0,0.015,0.007,0.029,0.022,0.044h0.088
		c0.044-0.015,0.066-0.044,0.066-0.088C20.454,44.374,20.395,44.389,20.395,44.418z M21.231,43.934
		c-0.132-0.059-0.242-0.088-0.33-0.088c-0.088,0-0.154,0.029-0.198,0.088l0.528,0.088V43.934z M21.341,44.551
		c-0.044,0-0.088,0.003-0.132,0.01c-0.044,0.008-0.095,0.02-0.154,0.033c0.088,0.104,0.19,0.154,0.308,0.154
		c0.058,0,0.132-0.015,0.22-0.044C21.568,44.602,21.487,44.551,21.341,44.551z M21.341,43.143c-0.147-0.059-0.213-0.096-0.198-0.11
		l0.198,0.153V43.143z M21.561,45.275c-0.132,0-0.198,0.06-0.198,0.177v0.044c0.058,0.088,0.227,0.162,0.506,0.221
		c0.19,0,0.286-0.052,0.286-0.154v-0.045C21.994,45.357,21.795,45.275,21.561,45.275z M21.847,46.09
		c-0.162,0.045-0.301,0.133-0.418,0.264c0.073,0.162,0.33,0.271,0.77,0.33c0.234-0.189,0.352-0.314,0.352-0.373v-0.022
		C22.331,46.156,22.096,46.09,21.847,46.09z M22.309,46.948c-0.162,0-0.337,0.059-0.528,0.176l0.088,0.065
		c0.073,0.016,0.139,0.026,0.198,0.033c0.059,0.008,0.118,0.012,0.176,0.012c0.19,0,0.344-0.059,0.462-0.176
		C22.558,46.984,22.426,46.948,22.309,46.948z M22.705,46.135h-0.066l0.066,0.065V46.135z"/>
	<path fill="#bb8822" d="M32.88,43.385c-0.037,0.146-0.092,0.293-0.165,0.439c-0.074,0.146-0.162,0.271-0.264,0.374s-0.228,0.161-0.374,0.176
		c-0.602,0.483-1.048,0.726-1.342,0.726h-0.11l-0.198-0.176c0.015-0.029,0.044-0.117,0.088-0.264
		c0.044-0.146,0.091-0.315,0.143-0.506s0.077-0.301,0.077-0.33c0-0.264-0.154-0.439-0.462-0.528c-0.03,0-0.092-0.015-0.187-0.044
		c-0.096-0.029-0.198-0.063-0.308-0.1c-0.11-0.035-0.213-0.068-0.308-0.098s-0.15-0.045-0.165-0.045c-0.19,0-0.399,0.033-0.627,0.1
		s-0.44,0.158-0.638,0.275c-0.198,0.117-0.367,0.249-0.506,0.396c-0.139,0.146-0.209,0.294-0.209,0.44
		c0,0.029,0.025,0.084,0.077,0.164c0.051,0.081,0.103,0.173,0.154,0.275s0.103,0.194,0.154,0.275
		c0.051,0.08,0.077,0.135,0.077,0.164c0,0.059-0.015,0.118-0.044,0.176c0.059,0.162,0.143,0.426,0.253,0.793
		c0.11,0.367,0.363,0.887,0.759,1.562c0,0.278-0.059,0.44-0.176,0.484c-0.088-0.089-0.198-0.132-0.33-0.132
		c-0.206,0.132-0.371,0.234-0.495,0.308c-0.125,0.073-0.253,0.144-0.385,0.209c-0.132,0.065-0.235,0.099-0.308,0.099h-0.11
		c-0.073,0.015-0.139,0.022-0.198,0.022s-0.11,0-0.154,0c-0.132,0-0.228-0.088-0.286-0.265c-0.059-0.176-0.125-0.41-0.198-0.703
		c-0.073-0.352-0.158-0.675-0.253-0.969c-0.096-0.293-0.187-0.598-0.275-0.912c-0.088-0.315-0.172-0.668-0.253-1.057
		c-0.081-0.389-0.151-0.861-0.209-1.419c-0.147-0.132-0.22-0.278-0.22-0.44c0-0.043,0.011-0.113,0.033-0.209
		c0.022-0.095,0.044-0.189,0.066-0.285s0.044-0.188,0.066-0.275s0.033-0.154,0.033-0.197c-0.088-0.059-0.132-0.133-0.132-0.221
		c0-0.176,0.128-0.326,0.385-0.451c0.256-0.124,0.561-0.187,0.913-0.187c0.366,0,0.623,0.14,0.77,0.418
		c-0.03,0.117-0.044,0.198-0.044,0.241c0,0.221,0.132,0.383,0.396,0.484c0.205-0.029,0.513-0.168,0.924-0.418h0.22
		c0.132,0,0.271,0.008,0.418,0.021c0.146,0.016,0.308,0.045,0.484,0.089c0.146-0.22,0.337-0.33,0.572-0.33
		c0.059,0,0.132,0.011,0.22,0.032c0.088,0.023,0.205,0.049,0.352,0.078c0.278,0.073,0.553,0.146,0.825,0.22s0.517,0.165,0.737,0.274
		c0.22,0.11,0.407,0.238,0.561,0.385c0.154,0.147,0.245,0.316,0.275,0.507C32.949,43.12,32.917,43.238,32.88,43.385z M25.389,42.855
		l0.022,0.242h0.11C25.521,42.938,25.477,42.855,25.389,42.855z M26.335,43.428c-0.118,0.029-0.242,0.11-0.374,0.242
		c0.103,0.088,0.271,0.133,0.506,0.133h0.132c0.19-0.133,0.286-0.221,0.286-0.265C26.812,43.465,26.628,43.428,26.335,43.428z
		 M26.467,42.768c-0.191,0-0.315,0.088-0.374,0.265c0.073,0,0.146,0.022,0.22,0.065c0.073,0.045,0.146,0.066,0.22,0.066
		c0.176,0,0.345-0.066,0.506-0.197C26.79,42.834,26.599,42.768,26.467,42.768z M26.313,44.242c-0.162,0.117-0.228,0.184-0.198,0.197
		c0.146,0.06,0.25,0.088,0.308,0.088h0.022c0.25,0,0.374-0.043,0.374-0.131v-0.022C26.731,44.286,26.562,44.242,26.313,44.242z
		 M26.269,45.078v0.154c0.029,0.015,0.066,0.029,0.11,0.043c0.044,0.016,0.095,0.037,0.154,0.066c0.176,0,0.264-0.051,0.264-0.154
		v-0.043C26.679,45.1,26.503,45.078,26.269,45.078z M26.687,47.63c-0.015-0.015-0.066-0.022-0.154-0.022v0.089h0.154V47.63z
		 M27.083,46.42h-0.33c-0.059,0-0.088,0.021-0.088,0.066c0,0.088,0.066,0.15,0.198,0.187c0.132,0.037,0.212,0.056,0.242,0.056
		c0.088,0,0.161-0.052,0.22-0.154C27.31,46.486,27.229,46.436,27.083,46.42z M27.677,45.782c-0.029-0.029-0.073-0.044-0.132-0.044
		l0.132,0.109V45.782z M28.315,47.762h-0.022l0.022,0.022V47.762z M31.417,42.988c-0.103,0-0.169,0.037-0.198,0.109
		c0.059,0.045,0.125,0.066,0.198,0.066c0.044,0,0.088-0.029,0.132-0.088C31.505,43.018,31.461,42.988,31.417,42.988z M31.549,42.107
		l-0.044,0.154c0.059,0.074,0.125,0.117,0.198,0.133c0.014-0.045,0.036-0.096,0.066-0.154v0.021
		C31.681,42.189,31.607,42.138,31.549,42.107z M31.835,43.891h-0.044c-0.03,0.014-0.081,0.059-0.154,0.131l0.198,0.221
		c0.044-0.044,0.081-0.125,0.11-0.242C31.916,43.927,31.879,43.891,31.835,43.891z"/>
	<path fill="#bb8822" d="M43.154,44.23c-0.007,0.125-0.019,0.271-0.033,0.44s-0.041,0.33-0.077,0.484c-0.037,0.153-0.099,0.274-0.187,0.362
		c0.014,0.03,0.022,0.066,0.022,0.11c0,0.073-0.037,0.147-0.11,0.22l-0.176-0.131c-0.015,0.014-0.022,0.051-0.022,0.109
		c0,0.088,0.007,0.162,0.022,0.22c-0.411,0.455-1.063,0.976-1.958,1.562c-0.029,0.016-0.143,0.063-0.341,0.144
		c-0.198,0.081-0.404,0.169-0.616,0.265c-0.213,0.096-0.305,0.143-0.275,0.143c-0.044,0-0.169-0.059-0.374-0.176
		c-0.088,0-0.14,0.029-0.154,0.088c-0.162,0.22-0.418,0.337-0.77,0.352s-0.807,0.037-1.364,0.066h-0.066
		c-0.118,0-0.264-0.025-0.44-0.077s-0.352-0.106-0.528-0.165c-0.176-0.059-0.341-0.117-0.495-0.176
		c-0.154-0.059-0.261-0.088-0.319-0.088c-0.015-0.015-0.077-0.066-0.187-0.154c-0.11-0.088-0.235-0.19-0.374-0.309
		c-0.14-0.117-0.272-0.23-0.396-0.34c-0.125-0.111-0.202-0.195-0.231-0.254v-0.066c0-0.117-0.03-0.285-0.088-0.506
		c-0.059-0.219-0.088-0.461-0.088-0.726c0-1.158,0.718-2.236,2.156-3.233c0.938-0.66,1.716-0.99,2.332-0.99l0.088,0.109v0.594
		c-0.03,0.25-0.154,0.39-0.374,0.418c-0.293,0.147-0.536,0.287-0.726,0.418c-0.191,0.133-0.359,0.295-0.506,0.484
		c-0.147,0.191-0.279,0.422-0.396,0.693c-0.118,0.271-0.235,0.612-0.352,1.023c-0.103,0.043-0.154,0.139-0.154,0.285
		c0,0.088,0.047,0.15,0.143,0.188c0.095,0.037,0.216,0.143,0.363,0.318c0.146,0.235,0.319,0.43,0.517,0.584
		c0.198,0.153,0.396,0.274,0.594,0.362c0.198,0.089,0.377,0.151,0.539,0.187c0.161,0.037,0.286,0.056,0.374,0.056
		c0.014,0,0.176-0.022,0.484-0.065l0.264,0.088c0.308-0.133,0.557-0.238,0.748-0.319c0.19-0.081,0.344-0.157,0.462-0.231
		c0.117-0.072,0.209-0.143,0.275-0.209c0.066-0.065,0.135-0.15,0.209-0.252c0.059,0.043,0.125,0.065,0.198,0.065h0.088
		c0.014-0.015,0.036-0.063,0.066-0.144c0.029-0.08,0.059-0.172,0.088-0.274s0.066-0.194,0.11-0.275
		c0.044-0.08,0.095-0.136,0.154-0.165c-0.132-0.059-0.22-0.164-0.264-0.318s-0.077-0.319-0.099-0.496
		c-0.022-0.176-0.055-0.348-0.099-0.516c-0.044-0.169-0.125-0.29-0.242-0.363c-0.059-0.015-0.136-0.074-0.231-0.176
		c-0.096-0.104-0.198-0.209-0.308-0.32c-0.11-0.109-0.224-0.209-0.341-0.297c-0.118-0.088-0.228-0.131-0.33-0.131l-0.506-0.133
		c-0.264-0.102-0.396-0.227-0.396-0.373c0.029-0.059,0.044-0.104,0.044-0.133c0-0.117-0.103-0.176-0.308-0.176
		c0.059,0,0.099-0.051,0.121-0.154c0.022-0.102,0.069-0.161,0.143-0.176l-0.066-0.242c0.132-0.088,0.484-0.146,1.056-0.176
		l0.088,0.176c-0.029,0.088-0.051,0.146-0.066,0.176h0.044c0.073,0,0.161-0.055,0.264-0.164c0.103-0.11,0.161-0.166,0.176-0.166
		l0.198,0.066l0.154-0.132c0.234,0.118,0.473,0.231,0.715,0.341c0.242,0.109,0.462,0.23,0.66,0.363
		c0.198,0.132,0.367,0.271,0.506,0.418c0.139,0.146,0.223,0.308,0.253,0.484c0.264,0.146,0.513,0.571,0.748,1.275
		C43.172,44.029,43.161,44.106,43.154,44.23z M34.761,45.387c-0.118,0-0.206,0.043-0.264,0.131c0.073,0.088,0.168,0.147,0.286,0.176
		c0.22,0,0.33-0.051,0.33-0.153v-0.022C34.981,45.43,34.863,45.387,34.761,45.387z M35.234,46.244
		c-0.096-0.044-0.195-0.066-0.297-0.066c-0.162,0-0.264,0.059-0.308,0.176c0.117,0.045,0.286,0.118,0.506,0.221
		c0.264,0,0.396-0.051,0.396-0.154C35.428,46.347,35.329,46.288,35.234,46.244z M34.849,43.538h-0.066l0.066,0.065V43.538z
		 M35.014,47.18c0.007-0.008,0.011-0.02,0.011-0.033c0-0.088-0.081-0.133-0.242-0.133l0.044,0.198h0.176
		C35.003,47.197,35.006,47.187,35.014,47.18z M35.575,43.803h-0.11L35.531,44l0.044-0.044V43.803z M38.941,41.602
		c-0.015-0.014-0.037-0.021-0.066-0.021l0.066,0.044V41.602z M40.921,42.107c-0.074-0.014-0.162-0.035-0.264-0.065v0.11
		c0.015,0.044,0.066,0.066,0.154,0.066h0.11V42.107z M41.603,43.273c-0.074,0-0.125,0.037-0.154,0.111h-0.022
		c0-0.029,0.022-0.022,0.066,0.021s0.125,0.066,0.242,0.066c0.029,0,0.066-0.029,0.11-0.088
		C41.727,43.311,41.647,43.273,41.603,43.273z M42.01,44.044c-0.081-0.044-0.165-0.065-0.253-0.065s-0.147,0.059-0.176,0.176
		c0.102,0.029,0.172,0.059,0.209,0.088c0.036,0.029,0.084,0.044,0.143,0.044c0.073,0,0.146-0.036,0.22-0.11
		C42.138,44.132,42.09,44.088,42.01,44.044z"/>
	<path fill="#bb8822" d="M52.691,43.648c-0.162-0.045-0.367-0.184-0.616-0.418c0,0.014,0.003,0.025,0.011,0.033
		c0.007,0.007,0.011,0.018,0.011,0.032c0,0.103-0.032,0.177-0.099,0.22c-0.066,0.045-0.143,0.078-0.231,0.1
		c-0.088,0.021-0.184,0.033-0.285,0.033c-0.088,0-0.162,0-0.221,0c-0.22,0-0.381-0.022-0.484-0.066h-0.066
		c-0.044,0-0.11-0.004-0.198-0.011c-0.088-0.007-0.213-0.019-0.374-0.033c-0.132,0.044-0.271,0.065-0.418,0.065
		c-0.264,0-0.521-0.08-0.77-0.241c-0.074,0.029-0.169,0.091-0.286,0.187c-0.118,0.096-0.257,0.225-0.418,0.385
		c0.044,0.206,0.066,0.375,0.066,0.506c0,0.221-0.052,0.383-0.154,0.484c0.044,0.045,0.08,0.205,0.11,0.484
		c0.044,0.426,0.224,0.763,0.539,1.012c0.315,0.25,0.708,0.434,1.177,0.551h0.044c0.073,0,0.184-0.033,0.33-0.1
		s0.293-0.139,0.44-0.221c0.146-0.08,0.278-0.153,0.396-0.219c0.117-0.066,0.184-0.1,0.199-0.1c0.249,0,0.563,0.132,0.945,0.396
		c0,0.117-0.04,0.217-0.121,0.297c-0.08,0.08-0.169,0.154-0.264,0.22c-0.096,0.065-0.184,0.118-0.264,0.153
		c-0.081,0.037-0.129,0.063-0.144,0.078c-0.073,0.043-0.173,0.109-0.297,0.197c-0.125,0.088-0.261,0.18-0.407,0.275
		s-0.301,0.176-0.462,0.242c-0.162,0.065-0.308,0.099-0.44,0.099h-0.154c-0.03,0-0.07-0.029-0.121-0.088
		c-0.052-0.059-0.099-0.088-0.143-0.088h-0.022c0.029,0.059,0.051,0.11,0.066,0.153c0,0.029-0.029,0.056-0.088,0.078
		c-0.059,0.021-0.125,0.043-0.198,0.065c-0.074,0.022-0.143,0.04-0.209,0.056c-0.066,0.014-0.106,0.021-0.121,0.021
		c-0.03,0-0.136-0.016-0.319-0.045s-0.385-0.076-0.605-0.143c-0.22-0.066-0.433-0.154-0.638-0.264
		c-0.206-0.109-0.352-0.246-0.44-0.407c-0.147-0.058-0.257-0.132-0.33-0.22c-0.074-0.088-0.132-0.205-0.176-0.352
		s-0.084-0.326-0.121-0.539s-0.084-0.474-0.143-0.781c0.044-0.045,0.066-0.125,0.066-0.242c0-0.146-0.03-0.309-0.088-0.484
		c0.044-0.043,0.066-0.124,0.066-0.242c0-0.043-0.008-0.117-0.022-0.219c-0.015-0.104-0.022-0.184-0.022-0.242
		c0-0.104,0.036-0.177,0.11-0.221c-0.206-0.352-0.741-0.55-1.606-0.594c-0.22,0.176-0.396,0.264-0.528,0.264
		c-0.117,0-0.212-0.055-0.286-0.164c-0.074-0.111-0.11-0.202-0.11-0.275c0-0.045,0.007-0.088,0.022-0.133
		c0.014-0.043,0.036-0.095,0.066-0.153c0.586-0.704,1.041-1.056,1.364-1.056h0.022c0.073-0.074,0.168-0.11,0.286-0.11
		c0.044,0,0.139,0.015,0.286,0.044c0.146,0.029,0.242,0.044,0.286,0.044c0.22,0,0.345-0.124,0.374-0.374
		c0-0.044,0.037-0.129,0.11-0.253c0.073-0.124,0.11-0.202,0.11-0.231c0-0.072-0.008-0.117-0.022-0.132
		c0.029-0.146,0.044-0.241,0.044-0.286c0-0.072-0.015-0.124-0.044-0.154c0.176-0.131,0.264-0.396,0.264-0.791V39.6
		c0-0.088-0.004-0.168-0.011-0.242c-0.008-0.072-0.011-0.139-0.011-0.197c0-0.221,0.073-0.518,0.22-0.891
		c0.146-0.375,0.322-0.914,0.528-1.617c0.63-0.631,1.085-0.946,1.364-0.946c0.161,0,0.293,0.033,0.396,0.099
		c0.103,0.066,0.198,0.246,0.286,0.539v0.133c0,0.117,0.003,0.18,0.011,0.187s0,0.03-0.022,0.065
		c-0.022,0.037-0.063,0.133-0.121,0.287c-0.059,0.153-0.146,0.436-0.264,0.847c-0.176,0.206-0.264,0.418-0.264,0.638
		c0,0.059,0.014,0.146,0.044,0.264c0.015-0.029,0.003,0.02-0.033,0.144s-0.077,0.245-0.121,0.362
		c-0.044,0.118-0.074,0.184-0.088,0.199c-0.015,0-0.047-0.016-0.099-0.045c-0.052-0.029-0.085-0.051-0.099-0.066
		c-0.015,0.016-0.03,0.022-0.044,0.022l-0.022,0.022c0.146,0.088,0.22,0.213,0.22,0.373c0,0.016-0.011,0.066-0.033,0.154
		s-0.044,0.188-0.066,0.297c-0.022,0.11-0.044,0.209-0.066,0.297c-0.022,0.089-0.033,0.141-0.033,0.154
		c0-0.043,0.022,0.045,0.066,0.264c-0.088,0.118-0.132,0.235-0.132,0.353c0,0.206,0.08,0.356,0.242,0.451
		c0.161,0.096,0.352,0.15,0.572,0.165c0.073-0.015,0.176-0.021,0.308-0.021c0.132,0,0.293,0,0.484,0
		c0.014,0,0.077,0.007,0.187,0.021c0.11,0.015,0.234,0.029,0.374,0.044c0.139,0.015,0.286,0.029,0.439,0.044
		c0.154,0.015,0.29,0.021,0.407,0.021h0.198l0.088,0.154c0.029-0.014,0.073-0.033,0.132-0.055s0.103-0.033,0.132-0.033
		s0.059,0.021,0.088,0.066c0.045-0.059,0.11-0.088,0.198-0.088c0.059,0,0.11,0.008,0.154,0.021v0.021
		c0,0.03-0.022,0.078-0.066,0.144s-0.065,0.106-0.065,0.121c0.015,0.044,0.044,0.073,0.088,0.088h0.044
		c0.059,0,0.136-0.019,0.23-0.055c0.096-0.036,0.194-0.077,0.298-0.121c0.102-0.044,0.193-0.085,0.274-0.121
		s0.128-0.056,0.144-0.056c0.322,0,0.483,0.096,0.483,0.287c0-0.016-0.025,0.043-0.077,0.176c-0.051,0.132-0.076,0.242-0.076,0.33
		c0,0.015,0.003,0.025,0.011,0.033c0.007,0.007,0.011,0.018,0.011,0.033C53.424,43.421,53.043,43.648,52.691,43.648z M47.433,42.813
		c-0.382,0-0.756,0.088-1.122,0.264c0.22,0.103,0.477,0.154,0.77,0.154c0.381,0,0.762-0.096,1.144-0.287
		C47.961,42.855,47.697,42.813,47.433,42.813z M47.521,42.152c-0.352,0-0.667,0.103-0.946,0.308c0.146,0.147,0.366,0.22,0.66,0.22
		c0.308,0,0.704-0.117,1.188-0.352C48.071,42.211,47.77,42.152,47.521,42.152z M47.433,43.428c-0.22,0-0.455,0.081-0.704,0.242
		c0.088,0.088,0.249,0.133,0.484,0.133h0.154c0.176-0.029,0.322-0.104,0.44-0.221C47.704,43.479,47.58,43.428,47.433,43.428z
		 M46.883,41.866h0.022c0.073,0,0.118-0.081,0.132-0.242C46.978,41.639,46.927,41.72,46.883,41.866z M47.433,45.078
		c-0.015-0.015-0.11-0.021-0.286-0.021c0,0.088,0.059,0.131,0.176,0.131c0.014,0,0.051-0.014,0.11-0.043V45.078z M47.763,41.471
		h-0.11c-0.146,0.043-0.293,0.139-0.44,0.285c0.146,0.088,0.308,0.133,0.484,0.133h0.11c0.19-0.104,0.286-0.199,0.286-0.287V41.58
		C48.005,41.507,47.895,41.471,47.763,41.471z M47.235,39.204v0.132h0.088C47.323,39.307,47.293,39.263,47.235,39.204z
		 M47.763,46.398c-0.132,0-0.22,0-0.264,0c-0.162,0-0.25,0.029-0.264,0.088c0.176,0.088,0.33,0.132,0.462,0.132
		c0.088,0,0.176-0.022,0.264-0.065C47.961,46.449,47.895,46.398,47.763,46.398z M47.323,44.309h-0.022l0.022,0.065V44.309z
		 M48.005,47.146c-0.029,0-0.073,0.014-0.132,0.043h0.22C48.063,47.16,48.034,47.146,48.005,47.146z M48.313,36.52
		c-0.044,0-0.077,0.026-0.099,0.078c-0.022,0.051-0.033,0.092-0.033,0.121c0,0.059,0.036,0.088,0.11,0.088
		c0.073-0.074,0.11-0.125,0.11-0.154s-0.015-0.074-0.044-0.133H48.313z M49.369,36.586c0-0.014-0.03-0.021-0.088-0.021v0.154h0.088
		V36.586z M50.755,47.762h-0.044l0.044,0.022V47.762z M51.921,42.262l0.066,0.198c0.132,0,0.197-0.022,0.197-0.065
		C52.155,42.379,52.067,42.336,51.921,42.262z"/>
	<path fill="#bb8822" d="M62.965,43.582l-0.021,0.044c0,0.265-0.162,0.396-0.484,0.396c-0.103-0.058-0.205-0.088-0.308-0.088
		c-0.104,0-0.198,0.022-0.286,0.066h-0.264c-0.162,0-0.33-0.008-0.507-0.021c-0.176-0.015-0.366-0.045-0.571-0.088
		c-0.558,0.029-1.067,0.051-1.529,0.065s-0.877,0.022-1.243,0.022s-0.686-0.008-0.957-0.022s-0.487-0.036-0.648-0.065
		c-0.118,0.059-0.191,0.088-0.221,0.088c-0.103,0-0.176-0.059-0.22-0.176c-0.059,0-0.176,0.032-0.352,0.098
		c-0.177,0.066-0.286,0.1-0.33,0.1c-0.118,0-0.206-0.08-0.265-0.242c-0.059-0.161-0.088-0.308-0.088-0.439v-0.154
		c0.015-0.015,0.037-0.069,0.066-0.165c0.029-0.095,0.091-0.198,0.187-0.308c0.096-0.11,0.231-0.213,0.407-0.309
		c0.176-0.095,0.41-0.143,0.704-0.143c0.161,0,0.301,0.029,0.418,0.088s0.22,0.088,0.308,0.088s0.184-0.014,0.286-0.044
		c0.103-0.029,0.19-0.044,0.265-0.044l1.386-0.109c0.059,0.059,0.154,0.088,0.286,0.088h0.109c0.132-0.059,0.257-0.088,0.374-0.088
		c0.146,0.072,0.286,0.109,0.418,0.109c0.133,0,0.294-0.029,0.484-0.088s0.366-0.103,0.528-0.133c0.22,0,0.403,0.074,0.55,0.221
		c0.146-0.073,0.389-0.109,0.726-0.109h0.286c0.22,0.014,0.396,0.018,0.528,0.01c0.132-0.007,0.249-0.003,0.352,0.012
		s0.198,0.048,0.286,0.099c0.088,0.052,0.213,0.144,0.374,0.275C63.56,43.26,63.214,43.582,62.965,43.582z M54.957,43.098h-0.044
		l0.044,0.045V43.098z M55.947,43.648h-0.044l0.044,0.021V43.648z M58.763,42.658h-0.132l0.132,0.066V42.658z M63.053,43.208
		c0-0.029-0.021-0.065-0.065-0.11c-0.044-0.043-0.081-0.065-0.11-0.065s-0.059,0.036-0.088,0.11
		c0.029,0.102,0.088,0.153,0.176,0.153h0.044L63.053,43.208z M63.56,42.592h-0.066l0.066,0.022V42.592z"/>
	<path fill="#bb8822" d="M72.964,43.385c-0.037,0.146-0.092,0.293-0.165,0.439s-0.161,0.271-0.264,0.374c-0.104,0.103-0.228,0.161-0.374,0.176
		c-0.602,0.483-1.049,0.726-1.342,0.726h-0.11l-0.198-0.176c0.015-0.029,0.044-0.117,0.088-0.264s0.092-0.315,0.144-0.506
		c0.051-0.19,0.077-0.301,0.077-0.33c0-0.264-0.154-0.439-0.463-0.528c-0.029,0-0.092-0.015-0.187-0.044
		c-0.096-0.029-0.198-0.063-0.308-0.1c-0.11-0.035-0.213-0.068-0.309-0.098s-0.15-0.045-0.165-0.045c-0.19,0-0.399,0.033-0.627,0.1
		s-0.439,0.158-0.638,0.275s-0.367,0.249-0.506,0.396c-0.14,0.146-0.209,0.294-0.209,0.44c0,0.029,0.025,0.084,0.077,0.164
		c0.051,0.081,0.102,0.173,0.153,0.275s0.103,0.194,0.154,0.275c0.051,0.08,0.077,0.135,0.077,0.164
		c0,0.059-0.015,0.118-0.044,0.176c0.059,0.162,0.143,0.426,0.253,0.793c0.109,0.367,0.363,0.887,0.759,1.562
		c0,0.278-0.059,0.44-0.176,0.484c-0.088-0.089-0.198-0.132-0.33-0.132c-0.206,0.132-0.371,0.234-0.495,0.308
		c-0.125,0.073-0.253,0.144-0.385,0.209s-0.235,0.099-0.309,0.099h-0.109c-0.074,0.015-0.14,0.022-0.198,0.022s-0.11,0-0.154,0
		c-0.132,0-0.228-0.088-0.286-0.265c-0.059-0.176-0.124-0.41-0.197-0.703c-0.074-0.352-0.158-0.675-0.253-0.969
		c-0.096-0.293-0.188-0.598-0.275-0.912c-0.088-0.315-0.173-0.668-0.253-1.057c-0.081-0.389-0.15-0.861-0.209-1.419
		c-0.146-0.132-0.22-0.278-0.22-0.44c0-0.043,0.011-0.113,0.032-0.209c0.022-0.095,0.044-0.189,0.066-0.285s0.044-0.188,0.066-0.275
		c0.021-0.088,0.032-0.154,0.032-0.197c-0.088-0.059-0.132-0.133-0.132-0.221c0-0.176,0.128-0.326,0.385-0.451
		c0.257-0.124,0.562-0.187,0.913-0.187c0.367,0,0.624,0.14,0.771,0.418c-0.029,0.117-0.044,0.198-0.044,0.241
		c0,0.221,0.132,0.383,0.396,0.484c0.205-0.029,0.514-0.168,0.924-0.418h0.221c0.132,0,0.271,0.008,0.418,0.021
		c0.146,0.016,0.308,0.045,0.483,0.089c0.146-0.22,0.338-0.33,0.572-0.33c0.059,0,0.132,0.011,0.22,0.032
		c0.089,0.023,0.206,0.049,0.353,0.078c0.278,0.073,0.554,0.146,0.825,0.22c0.271,0.073,0.517,0.165,0.736,0.274
		c0.221,0.11,0.407,0.238,0.562,0.385c0.153,0.147,0.245,0.316,0.274,0.507C73.033,43.12,73,43.238,72.964,43.385z M65.473,42.855
		l0.022,0.242h0.109C65.604,42.938,65.561,42.855,65.473,42.855z M66.419,43.428c-0.117,0.029-0.242,0.11-0.374,0.242
		c0.103,0.088,0.271,0.133,0.506,0.133h0.132c0.19-0.133,0.286-0.221,0.286-0.265C66.896,43.465,66.712,43.428,66.419,43.428z
		 M66.551,42.768c-0.19,0-0.315,0.088-0.374,0.265c0.073,0,0.146,0.022,0.22,0.065c0.073,0.045,0.146,0.066,0.221,0.066
		c0.176,0,0.344-0.066,0.506-0.197C66.873,42.834,66.683,42.768,66.551,42.768z M66.396,44.242
		c-0.161,0.117-0.228,0.184-0.197,0.197c0.146,0.06,0.249,0.088,0.308,0.088h0.022c0.249,0,0.374-0.043,0.374-0.131v-0.022
		C66.814,44.286,66.646,44.242,66.396,44.242z M66.353,45.078v0.154c0.029,0.015,0.066,0.029,0.11,0.043
		c0.044,0.016,0.095,0.037,0.154,0.066c0.176,0,0.264-0.051,0.264-0.154v-0.043C66.764,45.1,66.587,45.078,66.353,45.078z
		 M66.771,47.63c-0.015-0.015-0.065-0.022-0.153-0.022v0.089h0.153V47.63z M67.167,46.42h-0.33c-0.059,0-0.088,0.021-0.088,0.066
		c0,0.088,0.065,0.15,0.198,0.187c0.132,0.037,0.212,0.056,0.241,0.056c0.089,0,0.162-0.052,0.221-0.154
		C67.395,46.486,67.313,46.436,67.167,46.42z M67.761,45.782c-0.029-0.029-0.073-0.044-0.132-0.044l0.132,0.109V45.782z
		 M68.398,47.762h-0.021l0.021,0.022V47.762z M71.501,42.988c-0.103,0-0.169,0.037-0.198,0.109c0.059,0.045,0.125,0.066,0.198,0.066
		c0.044,0,0.088-0.029,0.132-0.088C71.589,43.018,71.545,42.988,71.501,42.988z M71.633,42.107l-0.044,0.154
		c0.059,0.074,0.124,0.117,0.198,0.133c0.015-0.045,0.036-0.096,0.065-0.154v0.021C71.765,42.189,71.691,42.138,71.633,42.107z
		 M71.919,43.891h-0.044c-0.029,0.014-0.081,0.059-0.154,0.131l0.198,0.221c0.044-0.044,0.08-0.125,0.11-0.242
		C71.999,43.927,71.963,43.891,71.919,43.891z"/>
	<path fill="#bb8822" d="M74.58,41.338c-0.015-0.014-0.073-0.055-0.176-0.121s-0.209-0.143-0.319-0.23c-0.109-0.088-0.209-0.191-0.297-0.309
		s-0.132-0.234-0.132-0.352c0-0.161,0.055-0.319,0.165-0.473c0.11-0.154,0.319-0.371,0.627-0.649l1.034-0.065l0.66,1.1
		C75.98,40.752,75.46,41.118,74.58,41.338z M75.878,47.663c-0.146,0.11-0.318,0.231-0.517,0.362
		c-0.198,0.133-0.396,0.25-0.594,0.353s-0.363,0.154-0.495,0.154l-0.264-0.265c0.19-0.043,0.285-0.117,0.285-0.22v-0.153h-0.285
		c-0.045-0.279-0.074-0.535-0.089-0.771c-0.015-0.234-0.021-0.447-0.021-0.638c0-0.367,0.029-0.631,0.088-0.793
		c-0.029-0.088-0.055-0.264-0.077-0.527c-0.021-0.264-0.069-0.631-0.143-1.1v-0.088c0-0.117,0.036-0.221,0.109-0.309v-0.021
		c0-0.059-0.036-0.146-0.109-0.264c-0.074-0.117-0.11-0.213-0.11-0.287c0-0.22,0.036-0.385,0.11-0.494
		c0.073-0.11,0.176-0.198,0.308-0.265c0.132-0.065,0.286-0.124,0.462-0.176s0.374-0.136,0.594-0.253
		c0.045,0.044,0.19,0.103,0.44,0.176c0.088,0.029,0.169,0.107,0.242,0.23c0.073,0.125,0.132,0.262,0.176,0.408
		s0.077,0.271,0.099,0.373c0.022,0.104,0.033,0.146,0.033,0.133v0.021c0,0.059-0.011,0.129-0.033,0.209
		c-0.021,0.081-0.044,0.165-0.065,0.253c-0.022,0.089-0.044,0.165-0.066,0.231c-0.021,0.066-0.033,0.106-0.033,0.121
		c0,0.117,0.045,0.22,0.133,0.308c-0.015,0.059-0.026,0.11-0.033,0.153c-0.008,0.045-0.011,0.096-0.011,0.154
		c0,0.133,0.021,0.265,0.065,0.396s0.066,0.264,0.066,0.396c0,0.469-0.103,0.807-0.309,1.012c0.19,0.088,0.294,0.426,0.309,1.012
		C76.112,47.498,76.024,47.553,75.878,47.663z M73.942,40.238h-0.066l0.066,0.066V40.238z M74.338,44.814v-0.066
		c0-0.073-0.036-0.109-0.109-0.109l-0.022,0.176c0.015,0.073,0.044,0.109,0.088,0.109h0.044V44.814z M74.977,43.934h-0.11
		c-0.103,0-0.184,0.03-0.242,0.088c0.059,0.06,0.1,0.107,0.121,0.144c0.022,0.036,0.084,0.056,0.188,0.056
		c0.088,0,0.176-0.029,0.264-0.089C75.152,44.015,75.079,43.949,74.977,43.934z M74.845,46.156v0.197h0.088
		c0.088-0.014,0.153-0.08,0.197-0.197H74.845z M75.372,39.908l-0.021,0.154c0.029,0,0.051-0.008,0.065-0.022L75.372,39.908z"/>
	<path fill="#bb8822" d="M87.604,46.729c-0.044-0.059-0.095-0.088-0.153-0.088h-0.066c-0.059,0.029-0.088,0.059-0.088,0.088
		c0,0.043,0.015,0.076,0.044,0.099s0.059,0.077,0.088,0.165c-0.029,0.044-0.109,0.113-0.242,0.209
		c-0.132,0.096-0.274,0.197-0.429,0.309c-0.154,0.109-0.301,0.212-0.439,0.307c-0.14,0.096-0.225,0.158-0.254,0.188h-0.021
		c-0.044,0-0.11,0.037-0.198,0.11s-0.184,0.15-0.286,0.231c-0.103,0.08-0.201,0.156-0.297,0.23
		c-0.096,0.073-0.157,0.109-0.187,0.109c-0.074,0-0.14-0.014-0.198-0.043c-0.029,0.088-0.103,0.131-0.22,0.131
		c-0.03,0-0.11-0.029-0.242-0.088s-0.22-0.088-0.264-0.088c-0.089,0-0.162,0.029-0.221,0.088c-0.059-0.014-0.176-0.059-0.352-0.131
		c-0.176-0.074-0.389-0.151-0.639-0.231c-0.249-0.081-0.524-0.154-0.824-0.22c-0.301-0.066-0.613-0.1-0.936-0.1
		c-0.47,0-0.784,0.059-0.945,0.176c-0.118-0.043-0.206-0.065-0.265-0.065c-0.015,0-0.073,0.022-0.176,0.065
		c-0.103,0.045-0.217,0.092-0.341,0.144c-0.125,0.052-0.25,0.099-0.374,0.144c-0.125,0.043-0.217,0.065-0.275,0.065h-0.065
		c-0.03,0-0.11,0.032-0.242,0.099s-0.275,0.14-0.429,0.221c-0.154,0.08-0.301,0.153-0.44,0.22c-0.14,0.065-0.231,0.099-0.275,0.099
		c-0.146-0.103-0.22-0.228-0.22-0.374c0-0.088,0.015-0.153,0.044-0.198c0.19-0.264,0.403-0.539,0.638-0.824
		c0.235-0.286,0.474-0.543,0.716-0.771c0.241-0.228,0.483-0.418,0.726-0.571c0.242-0.154,0.473-0.231,0.693-0.231
		c0.059,0,0.103,0.003,0.132,0.011s0.059,0.012,0.088,0.012c0.103-0.133,0.264-0.279,0.484-0.44c0.22-0.161,0.45-0.323,0.692-0.484
		s0.477-0.319,0.704-0.473c0.228-0.154,0.399-0.29,0.518-0.407c-0.016-0.103-0.133-0.253-0.353-0.451
		c-0.22-0.197-0.473-0.393-0.759-0.582c-0.286-0.191-0.562-0.355-0.825-0.496c-0.264-0.139-0.44-0.209-0.528-0.209
		c-0.264,0-0.491,0.081-0.682,0.242c-0.19,0.162-0.367,0.367-0.528,0.616c0,0.22-0.301,0.499-0.901,0.836h-0.374
		c-0.132-0.015-0.206-0.088-0.221-0.22c0.029-0.19,0.103-0.385,0.221-0.583c0.117-0.198,0.242-0.378,0.374-0.539
		s0.26-0.298,0.385-0.407c0.124-0.109,0.216-0.165,0.275-0.165h0.021c-0.088-0.058-0.132-0.124-0.132-0.198
		c0.088-0.117,0.249-0.264,0.483-0.439c0.029,0,0.114-0.021,0.254-0.066c0.139-0.044,0.3-0.105,0.483-0.188
		c0.184-0.08,0.29-0.164,0.319-0.252c0.146-0.029,0.3-0.052,0.462-0.066c0.161-0.014,0.322-0.021,0.484-0.021
		c1.07,0,1.892,0.344,2.464,1.033v0.176c0.073,0.03,0.172,0.066,0.297,0.11c0.124,0.044,0.268,0.089,0.429,0.132
		c-0.059,0.104-0.088,0.198-0.088,0.287c0,0.146,0.059,0.219,0.176,0.219c-0.029,0,0.008-0.047,0.11-0.143s0.234-0.194,0.396-0.297
		s0.338-0.194,0.528-0.275c0.19-0.08,0.352-0.105,0.484-0.076c0.029,0.029,0.08,0.043,0.153,0.043c0.029,0,0.088-0.029,0.177-0.088
		c0.088-0.059,0.183-0.121,0.285-0.187s0.198-0.128,0.286-0.187s0.146-0.088,0.177-0.088c0.176,0,0.366,0.109,0.571,0.33v0.043
		c0,0.088-0.007,0.166-0.021,0.231s-0.052,0.132-0.11,0.198c-0.059,0.065-0.15,0.143-0.275,0.23
		c-0.124,0.088-0.297,0.213-0.517,0.374s-0.396,0.29-0.528,0.386c-0.132,0.096-0.241,0.172-0.33,0.23
		c-0.088,0.059-0.168,0.1-0.241,0.121c-0.074,0.021-0.162,0.041-0.265,0.055c-0.602,0.528-1.1,0.792-1.496,0.792h-0.132
		c-0.073,0-0.117,0.026-0.132,0.077c-0.015,0.052-0.025,0.104-0.033,0.154c-0.007,0.051-0.021,0.103-0.044,0.154
		c-0.021,0.051-0.069,0.076-0.143,0.076H83.16c0.015-0.014-0.022,0.012-0.11,0.077s-0.19,0.151-0.308,0.253
		c-0.118,0.104-0.228,0.213-0.33,0.33s-0.154,0.221-0.154,0.309s0.036,0.153,0.11,0.197c0.073,0.045,0.157,0.077,0.253,0.1
		c0.095,0.021,0.18,0.037,0.253,0.043c0.073,0.008,0.11,0.02,0.11,0.033h-0.045c0.103,0,0.198-0.043,0.286-0.131
		c0.205,0.088,0.374,0.161,0.506,0.219c0.133,0.06,0.271,0.11,0.419,0.154c0.146,0.045,0.264,0.066,0.352,0.066h0.088
		c0.103,0.073,0.293,0.109,0.572,0.109c0.088,0,0.15,0.004,0.187,0.012c0.037,0.008,0.081,0.004,0.132-0.012
		c0.052-0.014,0.117-0.047,0.198-0.099s0.201-0.136,0.363-0.253c0.146-0.103,0.245-0.194,0.297-0.275
		c0.052-0.08,0.103-0.146,0.154-0.197c0.051-0.051,0.121-0.088,0.209-0.11s0.249-0.032,0.483-0.032h0.133
		c0.264,0,0.41,0.124,0.439,0.373C87.743,46.611,87.692,46.684,87.604,46.729z M78.738,48.246h-0.066l0.066,0.044V48.246z
		 M79.64,46.838c0.015,0.029,0.008,0.074-0.021,0.133c-0.03,0.059-0.103,0.131-0.221,0.219c-0.117,0.088-0.352,0.184-0.703,0.287
		v0.021c0,0.088,0.132,0.132,0.396,0.132c0.015-0.015,0.069-0.055,0.165-0.12c0.096-0.066,0.201-0.158,0.319-0.275
		c0.117-0.117,0.176-0.242,0.176-0.375v-0.065C79.662,46.794,79.625,46.809,79.64,46.838z M81.51,46.574
		c-0.366,0-0.623,0.073-0.77,0.22c0.249,0.073,0.462,0.11,0.638,0.11s0.396-0.037,0.66-0.11
		C81.95,46.647,81.773,46.574,81.51,46.574z M81.95,45.914c-0.03-0.044-0.096-0.066-0.198-0.066v0.045
		c0,0.088,0.036,0.131,0.11,0.131c0.044,0,0.073-0.006,0.088-0.021V45.914z M82.962,42.02c0-0.088-0.059-0.153-0.176-0.197h-0.088
		c-0.074,0-0.14,0.015-0.198,0.044c0.044,0,0.113,0.052,0.209,0.153c0.095,0.104,0.165,0.147,0.209,0.133L82.962,42.02z
		 M82.852,43.186l-0.132,0.11h0.704L82.852,43.186z M83.127,42.646c-0.037-0.007-0.092-0.018-0.165-0.032v0.176h0.176l0.066-0.132
		C83.189,42.658,83.163,42.654,83.127,42.646z M83.204,44.374c-0.059,0-0.114,0.026-0.165,0.077
		c-0.052,0.051-0.077,0.113-0.077,0.188v0.021h0.176c0.044,0,0.088-0.029,0.132-0.088v-0.045c0-0.043-0.015-0.095-0.044-0.153
		H83.204z M85.426,47.652c0.044,0.044,0.081,0.066,0.11,0.066h0.021c0.059-0.016,0.088-0.074,0.088-0.177
		C85.572,47.542,85.499,47.578,85.426,47.652z M85.689,47.895h0.045c0.088,0,0.241-0.117,0.462-0.353
		C85.873,47.572,85.704,47.689,85.689,47.895z"/>
	<path fill="#bb8822" d="M96.184,47.63c-0.176,0.235-0.337,0.353-0.483,0.353h-0.044c-0.66,0.381-1.738,0.66-3.234,0.836
		c-0.073-0.016-0.224-0.029-0.451-0.045c-0.228-0.014-0.524-0.036-0.891-0.065c-0.25-0.015-0.473-0.048-0.671-0.099
		c-0.198-0.052-0.374-0.114-0.528-0.188s-0.294-0.143-0.418-0.209c-0.125-0.066-0.246-0.121-0.363-0.165l-0.506-0.55
		c-0.146-0.338-0.22-0.667-0.22-0.99c0-0.044,0.003-0.084,0.011-0.121c0.008-0.036,0.011-0.076,0.011-0.121
		c0.177-0.337,0.382-0.645,0.616-0.924c0.234-0.278,0.466-0.514,0.693-0.703c0.228-0.191,0.447-0.342,0.66-0.451
		c0.212-0.11,0.399-0.173,0.561-0.188c0.161-0.205,0.293-0.363,0.396-0.473c0.103-0.11,0.241-0.217,0.418-0.319
		c0.176-0.103,0.414-0.224,0.715-0.362c0.301-0.14,0.729-0.334,1.287-0.584c0,0.029,0.065,0.045,0.198,0.045
		c0.072,0,0.157-0.004,0.253-0.012c0.095-0.007,0.216-0.018,0.362-0.033h0.088c0.309,0,0.514,0.117,0.616,0.353l0.353-0.066
		l1.54,1.101c0.044,0.176,0.065,0.271,0.065,0.285c0,0.118-0.063,0.229-0.187,0.33c-0.125,0.104-0.271,0.206-0.44,0.309
		s-0.326,0.194-0.473,0.275c-0.147,0.08-0.242,0.15-0.286,0.209c-0.029,0.014-0.117,0.072-0.264,0.176
		c-0.147,0.103-0.319,0.217-0.518,0.341s-0.396,0.234-0.594,0.329c-0.198,0.096-0.363,0.151-0.495,0.166
		c-0.044,0.161-0.103,0.242-0.176,0.242c-0.044,0-0.074-0.008-0.088-0.022c-0.147,0.132-0.265,0.242-0.353,0.33
		s-0.169,0.18-0.242,0.274c-0.073,0.096-0.109,0.173-0.109,0.231c0,0.294,0.161,0.44,0.483,0.44c-0.015,0,0.019-0.012,0.1-0.033
		c0.08-0.021,0.18-0.044,0.297-0.066c0.117-0.021,0.234-0.044,0.352-0.066c0.117-0.021,0.213-0.032,0.286-0.032h0.11
		c0.029-0.044,0.092-0.085,0.187-0.121c0.096-0.036,0.198-0.065,0.309-0.088c0.109-0.022,0.253-0.056,0.429-0.099
		c0.543-0.484,0.968-0.727,1.276-0.727c0.073,0,0.139,0.025,0.197,0.077s0.198,0.202,0.418,0.45
		C97.218,47.285,96.8,47.542,96.184,47.63z M89.694,45.693c-0.03,0-0.085,0.008-0.165,0.023c-0.081,0.014-0.144,0.021-0.188,0.021
		s-0.065-0.008-0.065-0.021c0.044,0.043,0.08,0.109,0.109,0.197c-0.029,0.044-0.059,0.066-0.088,0.066h-0.065
		c-0.089-0.059-0.133-0.081-0.133-0.066c-0.044,0.044-0.124,0.096-0.241,0.154c0,0.044,0.117,0.117,0.352,0.22
		c0.059-0.059,0.128-0.136,0.209-0.231c0.08-0.095,0.18-0.216,0.297-0.363H89.694z M89.056,46.904c0-0.045-0.036-0.08-0.109-0.11
		l-0.022,0.177h0.11C89.049,46.955,89.056,46.934,89.056,46.904z M89.804,47.674c-0.088,0-0.169,0.074-0.242,0.221
		c0.015,0.014,0.044,0.088,0.089,0.22c0.117,0,0.278-0.044,0.483-0.132C90.09,47.777,89.979,47.674,89.804,47.674z M90.068,45.914
		v0.176h0.088C90.156,45.988,90.126,45.929,90.068,45.914z M93.478,43.538l0.133-0.11l-0.396-0.043
		c-0.059,0.189-0.426,0.396-1.1,0.615c-0.03,0.044-0.085,0.132-0.165,0.264c-0.081,0.133-0.177,0.268-0.286,0.407
		c-0.11,0.14-0.228,0.265-0.353,0.374c-0.124,0.11-0.23,0.165-0.318,0.165l-0.044-0.132h-0.066c-0.059,0-0.132,0.021-0.22,0.066
		c0.088,0.073,0.132,0.168,0.132,0.285c0,0.029-0.025,0.133-0.077,0.309s-0.077,0.301-0.077,0.374l0.44,0.616
		c0.088,0.088,0.161,0.131,0.22,0.131c0.029,0,0.077-0.018,0.144-0.055c0.065-0.036,0.135-0.076,0.209-0.121
		c0.073-0.043,0.139-0.084,0.197-0.121c0.059-0.035,0.103-0.055,0.133-0.055c0.058,0,0.124,0.037,0.197,0.11
		c0.088-0.19,0.249-0.392,0.484-0.604c0.234-0.213,0.48-0.418,0.737-0.617c0.256-0.197,0.498-0.385,0.726-0.561
		s0.37-0.314,0.429-0.418C94.468,44.271,94.108,43.979,93.478,43.538z M90.926,47.059c-0.015-0.016-0.052-0.078-0.109-0.188
		c-0.06-0.109-0.118-0.157-0.177-0.143l0.022,0.418c0.19,0.146,0.352,0.22,0.483,0.22c0.045,0,0.11-0.015,0.198-0.044L90.926,47.059
		z M91.344,44.639H91.3l0.044,0.021V44.639z M92.488,47.784h-0.221c0,0.015-0.003,0.026-0.011,0.032
		c-0.008,0.008-0.011,0.02-0.011,0.033c0,0.059,0.059,0.104,0.176,0.133c0.132,0,0.22-0.008,0.264-0.022
		C92.671,47.916,92.605,47.857,92.488,47.784z M92.29,47.256v0.309h0.065c0.029-0.029,0.045-0.074,0.045-0.133
		C92.4,47.389,92.363,47.33,92.29,47.256z M94.138,48.18c0-0.088-0.132-0.242-0.396-0.461l-0.11,0.176l0.264,0.109
		c-0.029,0.016-0.065,0.033-0.109,0.055c-0.044,0.022-0.066,0.049-0.066,0.078c0,0.102,0.044,0.153,0.132,0.153h0.044
		c0.029-0.015,0.066-0.029,0.11-0.044s0.088-0.029,0.132-0.044V48.18z M94.512,44.88c-0.059,0-0.096,0.073-0.109,0.22
		c0.132-0.014,0.205-0.065,0.22-0.153C94.578,44.902,94.541,44.88,94.512,44.88z M95.403,43.923c-0.052-0.007-0.1-0.011-0.144-0.011
		c-0.132,0-0.213,0.037-0.242,0.109c0.117,0.06,0.25,0.088,0.396,0.088c0.117,0,0.176-0.051,0.176-0.153
		C95.517,43.941,95.454,43.931,95.403,43.923z"/>
</g>
</svg>
